<svg xmlns="http://www.w3.org/2000/svg" width="125" height="62" viewBox="0 0 125 62" fill="none"><path d="M5.14747 35.6572C6.64174 35.5852 10.872 32.8705 17.7568 23.9929C17.8404 23.9008 17.9241 23.8087 18.0559 23.8023C18.4954 23.7811 19.0879 24.1931 19.1112 24.6765C19.1155 24.7644 19.0736 24.8105 19.0339 24.9005C13.9251 32.2389 9.07055 37.5386 5.37883 37.7165C4.58775 37.7546 2.69107 36.7888 2.56191 34.1079C2.44757 31.7346 3.37267 28.0779 4.0976 25.7523C5.66236 20.7432 9.36379 7.96626 12.3148 4.3C13.1451 3.24682 14.0675 2.27731 15.5617 2.20532C17.1 2.13121 18.3501 3.39251 18.4242 4.93073C18.6021 8.62245 13.0008 18.5395 6.86851 25.6628C6.10598 28.1224 4.78162 32.6353 4.90655 35.2283C4.92349 35.5799 5.01562 35.6636 5.14747 35.6572ZM8.36443 21.0535C12.3565 15.2226 16.582 7.83875 16.4169 4.41072C16.4042 4.14703 16.3141 4.10732 16.1823 4.11367C13.5914 4.28254 9.7285 16.4505 8.36443 21.0535ZM22.7997 20.9748C25.6125 20.8392 27.9322 22.3574 28.0042 23.8516C28.0211 24.2032 27.812 24.4336 27.4164 24.4526C26.054 24.5183 26.6768 22.8143 23.9519 22.9456C20.6557 23.1044 17.4982 27.97 17.6867 31.8814C18.8733 31.8243 22.8971 26.6526 24.2585 24.7369C24.3818 24.5548 24.5555 24.5023 24.7753 24.4918C25.4785 24.4579 26.6216 25.3279 26.3961 26.1317C25.9407 27.6513 25.481 29.0831 25.5594 30.7092C25.57 30.929 25.6621 31.0126 25.8379 31.0042C28.3451 30.9274 33.2961 25.7992 35.6762 23.0856C35.7599 22.9934 35.8457 22.9452 35.9336 22.941C36.3731 22.9198 36.9656 23.3318 36.9868 23.7713C36.991 23.8592 36.9513 23.9492 36.9116 24.0392C35.1446 26.6793 29.9765 32.7871 26.5924 32.9501C24.7905 33.0369 23.7183 31.8111 23.372 30.1098C22.251 31.5294 20.4316 33.9958 18.5418 34.0869C16.5641 34.1821 15.4225 32.431 15.3357 30.6291C15.1515 26.8056 18.6685 21.1738 22.7997 20.9748Z" fill="white"></path><path d="M42.4 4.6C42.4 2.65 41.9 1.55 40.5 1.25V0.999998H52.4C71.5 0.999998 71.6 36 52.4 36H40.5V35.75C41.9 35.45 42.4 34.35 42.4 32.4V4.6ZM50.9 35.5C67 35.5 67.6 1.5 50.9 1.5H47.8C46.35 1.5 45.9 2.65 45.9 4.6V32.4C45.9 34.35 46.35 35.5 47.8 35.5H50.9ZM73.4469 9.25C70.5469 9.25 70.5469 5.05 73.4469 5.05C76.2469 5.05 76.2469 9.25 73.4469 9.25ZM71.6969 15.15C71.6969 13.8 71.3969 13.8 70.8969 13.8V13.55C72.1969 13.45 74.2469 12.45 74.9469 11H75.1969V32.4C75.1969 34.35 75.6969 35.45 77.0969 35.75V36H69.7969V35.75C71.1969 35.45 71.6969 34.35 71.6969 32.4V15.15ZM100.8 14.6L91.8496 36L82.7996 14.6C81.8996 12.45 81.6996 11.55 80.0996 11.25V11H86.8496V11.25C85.6496 11.55 85.7496 12.4 86.6496 14.6L93.4496 30.8L100.3 14.4C101.2 12.2 101 11.55 99.7996 11.25V11H103.65V11.25C102.05 11.55 101.7 12.45 100.8 14.6ZM119.372 31.15V29.3C117.772 33.6 113.622 36.65 108.972 36C101.772 35 100.922 26.55 108.772 23.5C113.672 21.55 119.072 21.1 119.322 16.2C119.472 12.85 117.372 11.05 114.922 11.05C112.972 11.05 110.772 12.2 109.322 14.6C108.872 15.3 108.322 15.6 107.872 15.6C107.022 15.6 106.422 14.75 106.822 13.9C107.772 11.95 110.972 10.5 114.272 10.5C118.472 10.5 122.872 12.9 122.872 19.6V32.4C122.872 34.35 123.372 35.45 124.772 35.75V36H117.472V35.75C118.872 35.45 119.372 33.45 119.372 31.15ZM119.372 26.45V18.35C117.622 22.1 112.772 22.05 109.322 24.5C105.872 26.95 105.472 33.8 110.472 34.9C115.372 36 119.372 30.4 119.372 26.45Z" fill="white"></path><path d="M40.5 1.25H40L40.3952 1.7389L40.5 1.25ZM40.5 0.999998V0.499998L40 0.999998H40.5ZM40.5 36H40L40.5 36.5V36ZM40.5 35.75L40.3952 35.2611L40 35.75H40.5ZM42.9 4.6C42.9 3.59625 42.7739 2.73421 42.4151 2.0689C42.0391 1.3718 41.4342 0.938827 40.6048 0.761096L40.3952 1.7389C40.9658 1.86117 41.3109 2.1282 41.5349 2.54359C41.7761 2.99078 41.9 3.65375 41.9 4.6H42.9ZM41 1.25V0.999998H40V1.25H41ZM40.5 1.5H52.4V0.499998H40.5V1.5ZM52.4 1.5C57.0006 1.5 60.4437 3.59885 62.754 6.76355C65.0748 9.94272 66.2564 14.2087 66.2625 18.5007C66.2686 22.7927 65.0992 27.0582 62.7819 30.2367C60.4754 33.4004 57.0264 35.5 52.4 35.5V36.5C57.3736 36.5 61.1121 34.2246 63.59 30.8258C66.057 27.4418 67.2689 22.9573 67.2625 18.4993C67.2561 14.0413 66.0315 9.55727 63.5617 6.17394C61.0813 2.77615 57.3494 0.499998 52.4 0.499998V1.5ZM52.4 35.5H40.5V36.5H52.4V35.5ZM41 36V35.75H40V36H41ZM40.6048 36.2389C41.4342 36.0612 42.0391 35.6282 42.4151 34.9311C42.7739 34.2658 42.9 33.4038 42.9 32.4H41.9C41.9 33.3462 41.7761 34.0092 41.5349 34.4564C41.3109 34.8718 40.9658 35.1388 40.3952 35.2611L40.6048 36.2389ZM42.9 32.4V4.6H41.9V32.4H42.9ZM50.9 36C55.1302 36 58.3302 33.7563 60.4606 30.4588C62.5829 27.174 63.6619 22.8255 63.7 18.5044C63.7381 14.1837 62.736 9.83181 60.6305 6.54291C58.5147 3.23802 55.2744 0.999997 50.9 0.999997V2C54.8756 2 57.8228 4.01197 59.7883 7.08208C61.764 10.1682 62.7369 14.3163 62.7 18.4956C62.6631 22.6745 61.6171 26.826 59.6207 29.9162C57.6323 32.9937 54.7198 35 50.9 35V36ZM50.9 0.999997H47.8V2H50.9V0.999997ZM47.8 0.999997C47.3711 0.999997 46.9826 1.08539 46.6465 1.27425C46.3082 1.46433 46.0539 1.74191 45.8687 2.0768C45.5105 2.72461 45.4 3.60792 45.4 4.6H46.4C46.4 3.64208 46.5145 2.97539 46.7438 2.56069C46.8524 2.36434 46.9824 2.23254 47.1363 2.14605C47.2924 2.05835 47.5039 2 47.8 2V0.999997ZM45.4 4.6V32.4H46.4V4.6H45.4ZM45.4 32.4C45.4 33.3921 45.5105 34.2754 45.8687 34.9232C46.0539 35.2581 46.3082 35.5357 46.6465 35.7257C46.9826 35.9146 47.3711 36 47.8 36V35C47.5039 35 47.2924 34.9416 47.1363 34.8539C46.9824 34.7675 46.8524 34.6357 46.7438 34.4393C46.5145 34.0246 46.4 33.3579 46.4 32.4H45.4ZM47.8 36H50.9V35H47.8V36ZM70.8969 13.8H70.3969L70.8969 14.3V13.8ZM70.8969 13.55L70.8585 13.0515L70.3969 13.55H70.8969ZM74.9469 11V10.5L74.4966 10.7826L74.9469 11ZM75.1969 11H75.6969L75.1969 10.5V11ZM77.0969 35.75H77.5969L77.2016 35.2611L77.0969 35.75ZM77.0969 36V36.5L77.5969 36H77.0969ZM69.7969 36H69.2969L69.7969 36.5V36ZM69.7969 35.75L69.6921 35.2611L69.2969 35.75H69.7969ZM73.4469 8.75C72.8515 8.75 72.4447 8.5388 72.1835 8.25509C71.915 7.96351 71.7719 7.56361 71.7719 7.15C71.7719 6.73638 71.915 6.33649 72.1835 6.0449C72.4447 5.7612 72.8515 5.55 73.4469 5.55V4.55C72.5922 4.55 71.9116 4.8638 71.4478 5.36759C70.9912 5.86351 70.7719 6.51361 70.7719 7.15C70.7719 7.78638 70.9912 8.43649 71.4478 8.9324C71.9116 9.4362 72.5922 9.75 73.4469 9.75V8.75ZM73.4469 5.55C74.0112 5.55 74.3977 5.75665 74.6482 6.03843C74.9068 6.32942 75.0469 6.73153 75.0469 7.15C75.0469 7.56846 74.9068 7.97058 74.6482 8.26157C74.3977 8.54335 74.0112 8.75 73.4469 8.75V9.75C74.2826 9.75 74.9461 9.43165 75.3956 8.92593C75.8369 8.42942 76.0469 7.78153 76.0469 7.15C76.0469 6.51846 75.8369 5.87058 75.3956 5.37407C74.9461 4.86835 74.2826 4.55 73.4469 4.55V5.55ZM72.1969 15.15C72.1969 14.7983 72.1777 14.5101 72.1335 14.2765C72.0898 14.046 72.0146 13.8279 71.872 13.6529C71.5585 13.2682 71.0854 13.3 70.8969 13.3V14.3C71.2084 14.3 71.1352 14.3318 71.0968 14.2846C71.0917 14.2784 71.1227 14.3133 71.1509 14.4625C71.1786 14.6086 71.1969 14.8267 71.1969 15.15H72.1969ZM71.3969 13.8V13.55H70.3969V13.8H71.3969ZM70.9352 14.0485C71.6759 13.9915 72.5857 13.6863 73.3984 13.2134C74.2089 12.7417 74.9879 12.0651 75.3972 11.2174L74.4966 10.7826C74.2058 11.3849 73.6098 11.9333 72.8954 12.3491C72.183 12.7637 71.4178 13.0084 70.8585 13.0515L70.9352 14.0485ZM74.9469 11.5H75.1969V10.5H74.9469V11.5ZM74.6969 11V32.4H75.6969V11H74.6969ZM74.6969 32.4C74.6969 33.4038 74.823 34.2658 75.1818 34.9311C75.5578 35.6282 76.1627 36.0612 76.9921 36.2389L77.2016 35.2611C76.631 35.1388 76.286 34.8718 76.062 34.4564C75.8208 34.0092 75.6969 33.3462 75.6969 32.4H74.6969ZM76.5969 35.75V36H77.5969V35.75H76.5969ZM77.0969 35.5H69.7969V36.5H77.0969V35.5ZM70.2969 36V35.75H69.2969V36H70.2969ZM69.9016 36.2389C70.731 36.0612 71.336 35.6282 71.712 34.9311C72.0708 34.2658 72.1969 33.4038 72.1969 32.4H71.1969C71.1969 33.3462 71.073 34.0092 70.8318 34.4564C70.6078 34.8718 70.2627 35.1388 69.6921 35.2611L69.9016 36.2389ZM72.1969 32.4V15.15H71.1969V32.4H72.1969ZM100.8 14.6L100.338 14.4069L100.338 14.4071L100.8 14.6ZM91.8496 36L91.3891 36.1947L92.3109 36.1929L91.8496 36ZM82.7996 14.6L82.3384 14.7931L82.3391 14.7947L82.7996 14.6ZM80.0996 11.25H79.5996L80.0075 11.7414L80.0996 11.25ZM80.0996 11V10.5L79.5996 11H80.0996ZM86.8496 11H87.3496L86.8496 10.5V11ZM86.8496 11.25L86.9709 11.7351L87.3496 11.25H86.8496ZM86.6496 14.6L86.1868 14.7893L86.1886 14.7935L86.6496 14.6ZM93.4496 30.8L92.9886 30.9935L93.911 30.9927L93.4496 30.8ZM100.3 14.4L100.761 14.5927L100.762 14.5893L100.3 14.4ZM99.7996 11.25H99.2996L99.6783 11.7351L99.7996 11.25ZM99.7996 11V10.5L99.2996 11H99.7996ZM103.65 11H104.15L103.65 10.5V11ZM103.65 11.25L103.742 11.7414L104.15 11.25H103.65ZM100.338 14.4071L91.3883 35.8071L92.3109 36.1929L101.261 14.7929L100.338 14.4071ZM92.3101 35.8053L83.2601 14.4052L82.3391 14.7947L91.3891 36.1947L92.3101 35.8053ZM83.2608 14.4069C82.83 13.3778 82.5254 12.536 82.1251 11.9494C81.9123 11.6376 81.6613 11.3764 81.3338 11.1729C81.0093 10.9714 80.6339 10.8415 80.1918 10.7586L80.0075 11.7414C80.3653 11.8085 80.6149 11.9036 80.8061 12.0224C80.9942 12.1392 81.1494 12.2937 81.2991 12.5131C81.6238 12.9889 81.8692 13.6722 82.3384 14.7931L83.2608 14.4069ZM80.5996 11.25V11H79.5996V11.25H80.5996ZM80.0996 11.5H86.8496V10.5H80.0996V11.5ZM86.3496 11V11.25H87.3496V11H86.3496ZM86.7283 10.7649C86.3805 10.8519 86.0569 10.9948 85.8194 11.2501C85.5713 11.5169 85.4706 11.8481 85.4622 12.2006C85.4542 12.54 85.5303 12.9203 85.6532 13.3333C85.7775 13.7509 85.9599 14.2346 86.1868 14.7893L87.1124 14.4107C86.8893 13.8654 86.7217 13.4178 86.6116 13.048C86.5002 12.6735 86.4576 12.41 86.462 12.2244C86.4661 12.0519 86.5092 11.9768 86.5517 11.9311C86.6048 11.874 86.7187 11.7981 86.9709 11.7351L86.7283 10.7649ZM86.1886 14.7935L92.9886 30.9935L93.9106 30.6065L87.1106 14.4065L86.1886 14.7935ZM93.911 30.9927L100.761 14.5927L99.8382 14.2073L92.9882 30.6073L93.911 30.9927ZM100.762 14.5893C100.992 14.0285 101.159 13.5484 101.256 13.1374C101.353 12.7304 101.39 12.3563 101.329 12.0219C101.264 11.668 101.092 11.3819 100.821 11.1676C100.567 10.9662 100.251 10.8474 99.9209 10.7649L99.6783 11.7351C99.9486 11.8026 100.107 11.8776 100.2 11.9512C100.276 12.0119 100.323 12.082 100.345 12.2031C100.371 12.3437 100.365 12.5633 100.283 12.9063C100.203 13.2454 100.057 13.6715 99.8368 14.2107L100.762 14.5893ZM100.3 11.25V11H99.2996V11.25H100.3ZM99.7996 11.5H103.65V10.5H99.7996V11.5ZM103.15 11V11.25H104.15V11H103.15ZM103.557 10.7586C102.651 10.9284 102.047 11.2868 101.563 11.9305C101.116 12.5242 100.777 13.3597 100.338 14.4069L101.261 14.7931C101.722 13.6903 102.009 13.0008 102.362 12.532C102.677 12.1132 103.048 11.8716 103.742 11.7414L103.557 10.7586ZM119.372 29.3H119.872L118.903 29.1256L119.372 29.3ZM108.972 36L109.041 35.5048L109.041 35.5048L108.972 36ZM108.772 23.5L108.953 23.9661L108.957 23.9646L108.772 23.5ZM119.322 16.2L119.821 16.2255L119.821 16.2224L119.322 16.2ZM109.322 14.6L109.743 14.8705L109.75 14.8586L109.322 14.6ZM106.822 13.9L106.372 13.681L106.369 13.6871L106.822 13.9ZM124.772 35.75H125.272L124.877 35.2611L124.772 35.75ZM124.772 36V36.5L125.272 36H124.772ZM117.472 36H116.972L117.472 36.5V36ZM117.472 35.75L117.367 35.2611L116.972 35.75H117.472ZM119.372 18.35H119.872L118.919 18.1386L119.372 18.35ZM109.322 24.5L109.611 24.9077L109.322 24.5ZM110.472 34.9L110.581 34.4121L110.579 34.4117L110.472 34.9ZM119.872 31.15V29.3H118.872V31.15H119.872ZM118.903 29.1256C117.369 33.2492 113.416 36.1163 109.041 35.5048L108.903 36.4952C113.828 37.1837 118.175 33.9508 119.84 29.4744L118.903 29.1256ZM109.041 35.5048C105.645 35.0331 103.845 32.8403 103.728 30.4937C103.609 28.1375 105.181 25.4317 108.953 23.9661L108.591 23.0339C104.513 24.6183 102.584 27.6625 102.729 30.5438C102.874 33.4347 105.099 35.9669 108.903 36.4952L109.041 35.5048ZM108.957 23.9646C110.163 23.4844 111.4 23.0968 112.608 22.7009C113.806 22.3083 114.978 21.9069 116.009 21.406C117.042 20.9043 117.964 20.2884 118.645 19.4486C119.334 18.5998 119.754 17.55 119.821 16.2255L118.823 16.1745C118.765 17.3 118.416 18.1439 117.869 18.8186C117.314 19.5022 116.533 20.0394 115.572 20.5065C114.609 20.9743 113.497 21.3573 112.297 21.7506C111.106 22.1407 109.83 22.5406 108.587 23.0354L108.957 23.9646ZM119.821 16.2224C119.901 14.436 119.381 13.0099 118.462 12.0272C117.545 11.0469 116.27 10.55 114.922 10.55V11.55C116.023 11.55 117.024 11.9531 117.732 12.7103C118.438 13.4651 118.892 14.614 118.822 16.1776L119.821 16.2224ZM114.922 10.55C112.775 10.55 110.423 11.8108 108.894 14.3414L109.75 14.8586C111.121 12.5892 113.168 11.55 114.922 11.55V10.55ZM108.901 14.3296C108.51 14.9389 108.098 15.1 107.872 15.1V16.1C108.546 16.1 109.234 15.6611 109.742 14.8704L108.901 14.3296ZM107.872 15.1C107.377 15.1 107.035 14.6214 107.274 14.1129L106.369 13.6871C105.809 14.8786 106.666 16.1 107.872 16.1V15.1ZM107.271 14.119C107.676 13.2889 108.597 12.5046 109.873 11.9238C111.137 11.3481 112.691 11 114.272 11V10C112.553 10 110.857 10.3769 109.458 11.0137C108.071 11.6454 106.918 12.5611 106.372 13.681L107.271 14.119ZM114.272 11C116.283 11 118.304 11.5752 119.816 12.912C121.315 14.2385 122.372 16.3671 122.372 19.6H123.372C123.372 16.1329 122.229 13.7115 120.478 12.163C118.739 10.6248 116.46 10 114.272 10V11ZM122.372 19.6V32.4H123.372V19.6H122.372ZM122.372 32.4C122.372 33.4038 122.498 34.2658 122.857 34.9311C123.233 35.6282 123.838 36.0612 124.667 36.2389L124.877 35.2611C124.306 35.1388 123.961 34.8718 123.737 34.4564C123.496 34.0092 123.372 33.3462 123.372 32.4H122.372ZM124.272 35.75V36H125.272V35.75H124.272ZM124.772 35.5H117.472V36.5H124.772V35.5ZM117.972 36V35.75H116.972V36H117.972ZM117.577 36.2389C118.52 36.0368 119.09 35.2697 119.417 34.3709C119.745 33.4677 119.872 32.3266 119.872 31.15H118.872C118.872 32.2734 118.749 33.2823 118.477 34.0291C118.204 34.7803 117.824 35.1632 117.367 35.2611L117.577 36.2389ZM119.872 26.45V18.35H118.872V26.45H119.872ZM118.919 18.1386C118.128 19.8329 116.634 20.6967 114.795 21.4498C113.001 22.1843 110.82 22.823 109.032 24.0923L109.611 24.9077C111.274 23.727 113.243 23.1657 115.174 22.3752C117.059 21.6033 118.866 20.6171 119.825 18.5614L118.919 18.1386ZM109.032 24.0923C107.146 25.4317 106.129 27.9321 106.229 30.228C106.33 32.5522 107.591 34.7781 110.364 35.3883L110.579 34.4117C108.353 33.9219 107.314 32.1728 107.228 30.1845C107.14 28.1679 108.047 26.0183 109.611 24.9077L109.032 24.0923ZM110.362 35.3879C113.044 35.9899 115.44 34.7451 117.128 32.9069C118.81 31.075 119.872 28.571 119.872 26.45H118.872C118.872 28.279 117.934 30.55 116.391 32.2306C114.854 33.9049 112.8 34.9101 110.581 34.4121L110.362 35.3879Z" fill="white"></path><path d="M14.83 58V51H17.14C17.62 51 18.0333 51.0733 18.38 51.22C18.7333 51.3667 19.0067 51.5867 19.2 51.88C19.3933 52.1667 19.49 52.5267 19.49 52.96C19.49 53.26 19.4167 53.53 19.27 53.77C19.13 54.01 18.93 54.21 18.67 54.37C19.01 54.5367 19.27 54.76 19.45 55.04C19.63 55.32 19.72 55.6533 19.72 56.04C19.72 56.4533 19.6267 56.8067 19.44 57.1C19.2533 57.3933 18.99 57.6167 18.65 57.77C18.31 57.9233 17.9067 58 17.44 58H14.83ZM15.97 56.96H17.35C17.7167 56.96 18.0067 56.87 18.22 56.69C18.4333 56.51 18.54 56.2667 18.54 55.96C18.54 55.6267 18.42 55.3667 18.18 55.18C17.9467 54.9933 17.6167 54.9 17.19 54.9H15.97V56.96ZM15.97 53.94H17.24C17.5733 53.94 17.8333 53.8533 18.02 53.68C18.2133 53.5 18.31 53.2533 18.31 52.94C18.31 52.62 18.2 52.3767 17.98 52.21C17.7667 52.0367 17.4667 51.95 17.08 51.95H15.97V53.94ZM22.953 58V51H27.263V52.06H24.113V53.92H26.893V54.96H24.113V56.94H27.293V58H22.953ZM35.7015 58L32.9715 51H34.1315L36.9315 58H35.7015ZM30.1115 58L32.9015 51H34.0715L31.3415 58H30.1115ZM31.4215 56.28V55.25H35.6115V56.28H31.4215ZM42.5137 58.14C41.9603 58.14 41.4737 58.03 41.0537 57.81C40.6403 57.5833 40.317 57.2667 40.0837 56.86C39.857 56.4533 39.7437 55.98 39.7437 55.44V51H40.9037V55.44C40.9037 55.7667 40.9703 56.0533 41.1037 56.3C41.2437 56.54 41.437 56.73 41.6837 56.87C41.9303 57.0033 42.2137 57.07 42.5337 57.07C42.8603 57.07 43.147 57.0033 43.3937 56.87C43.647 56.73 43.8403 56.54 43.9737 56.3C44.107 56.0533 44.1737 55.7667 44.1737 55.44V51H45.3337V55.44C45.3337 55.98 45.217 56.4533 44.9837 56.86C44.757 57.2667 44.4303 57.5833 44.0037 57.81C43.5837 58.03 43.087 58.14 42.5137 58.14ZM50.1882 58V52.06H48.0382V51H53.4982V52.06H51.3482V58H50.1882ZM59.3309 55.1L58.2609 54.76L60.5209 51H61.8509L59.3309 55.1ZM58.2009 58V54.64H59.3609V58H58.2009ZM58.2309 55.1L55.7109 51H57.0409L59.3009 54.76L58.2309 55.1ZM71.4718 58.12C71.1051 58.12 70.7685 58.0767 70.4618 57.99C70.1618 57.9033 69.8951 57.7833 69.6618 57.63C69.4351 57.4767 69.2451 57.3067 69.0918 57.12C68.9451 56.9267 68.8418 56.7267 68.7818 56.52L69.9218 56.17C70.0085 56.4167 70.1785 56.6333 70.4318 56.82C70.6851 57.0067 70.9985 57.1033 71.3718 57.11C71.8051 57.11 72.1485 57.02 72.4018 56.84C72.6551 56.66 72.7818 56.4233 72.7818 56.13C72.7818 55.8633 72.6751 55.6467 72.4618 55.48C72.2485 55.3067 71.9618 55.1733 71.6018 55.08L70.7418 54.86C70.4151 54.7733 70.1185 54.6467 69.8518 54.48C69.5918 54.3133 69.3851 54.1033 69.2318 53.85C69.0851 53.5967 69.0118 53.2967 69.0118 52.95C69.0118 52.2967 69.2251 51.79 69.6518 51.43C70.0785 51.0633 70.6885 50.88 71.4818 50.88C71.9285 50.88 72.3185 50.95 72.6518 51.09C72.9918 51.2233 73.2718 51.41 73.4918 51.65C73.7118 51.8833 73.8751 52.15 73.9818 52.45L72.8618 52.81C72.7618 52.5433 72.5885 52.3233 72.3418 52.15C72.0951 51.9767 71.7885 51.89 71.4218 51.89C71.0418 51.89 70.7418 51.98 70.5218 52.16C70.3085 52.34 70.2018 52.59 70.2018 52.91C70.2018 53.17 70.2851 53.3733 70.4518 53.52C70.6251 53.66 70.8585 53.7667 71.1518 53.84L72.0118 54.05C72.6385 54.2033 73.1251 54.4667 73.4718 54.84C73.8185 55.2133 73.9918 55.6267 73.9918 56.08C73.9918 56.48 73.8951 56.8333 73.7018 57.14C73.5085 57.4467 73.2218 57.6867 72.8418 57.86C72.4685 58.0333 72.0118 58.12 71.4718 58.12ZM82.1253 58L79.3953 51H80.5553L83.3553 58H82.1253ZM76.5353 58L79.3253 51H80.4953L77.7653 58H76.5353ZM77.8453 56.28V55.25H82.0353V56.28H77.8453ZM86.2675 58V51H87.4275V56.94H90.5975V58H86.2675ZM96.524 58.12C95.8307 58.12 95.2173 57.9667 94.684 57.66C94.1507 57.3533 93.7307 56.9267 93.424 56.38C93.124 55.8333 92.974 55.2067 92.974 54.5C92.974 53.7933 93.124 53.17 93.424 52.63C93.7307 52.0833 94.1473 51.6567 94.674 51.35C95.2007 51.0367 95.8073 50.88 96.494 50.88C97.1873 50.88 97.7973 51.0367 98.324 51.35C98.8573 51.6567 99.2707 52.0833 99.564 52.63C99.864 53.17 100.014 53.7933 100.014 54.5C100.014 55.2067 99.864 55.8333 99.564 56.38C99.2707 56.9267 98.8607 57.3533 98.334 57.66C97.814 57.9667 97.2107 58.12 96.524 58.12ZM96.524 57.06C96.9773 57.06 97.3773 56.95 97.724 56.73C98.0707 56.51 98.3407 56.21 98.534 55.83C98.734 55.4433 98.834 55 98.834 54.5C98.834 54.0067 98.734 53.5667 98.534 53.18C98.334 52.7933 98.0573 52.4933 97.704 52.28C97.3573 52.06 96.954 51.95 96.494 51.95C96.0407 51.95 95.6373 52.06 95.284 52.28C94.9373 52.4933 94.6607 52.7933 94.454 53.18C94.254 53.56 94.154 54 94.154 54.5C94.154 55 94.254 55.4433 94.454 55.83C94.6607 56.21 94.9407 56.51 95.294 56.73C95.654 56.95 96.064 57.06 96.524 57.06ZM103.246 58V51H104.446L108.166 56.06V51H109.326V58H108.166L104.406 52.88V58H103.246Z" fill="white"></path></svg>