<svg xmlns="http://www.w3.org/2000/svg" width="151" height="75" viewBox="0 0 151 75" fill="none"><path d="M6.18205 42.7895C7.97516 42.7031 13.0519 39.4454 21.3151 28.792C21.4155 28.6815 21.5159 28.5709 21.6741 28.5633C22.2015 28.5379 22.9124 29.0322 22.9403 29.6124C22.9454 29.7179 22.8952 29.7731 22.8475 29.8812C16.7157 38.6874 10.8893 45.0472 6.45931 45.2607C5.51002 45.3064 3.23422 44.1474 3.07972 40.9302C2.94295 38.0823 4.05373 33.6941 4.92405 30.9033C6.80265 24.8922 11.2466 9.55957 14.7884 5.15996C15.785 3.89612 16.892 2.73268 18.6851 2.64629C20.531 2.55736 22.0309 4.07095 22.1195 5.91685C22.3323 10.347 15.6091 22.2477 8.2491 30.796C7.33363 33.7475 5.7436 39.1631 5.89303 42.2748C5.91329 42.6967 6.02384 42.7971 6.18205 42.7895ZM10.045 25.2646C14.8364 18.2674 19.9084 9.40656 19.7108 5.29284C19.6956 4.9764 19.5876 4.92874 19.4294 4.93636C16.3204 5.13902 11.6827 19.7409 10.045 25.2646Z" fill="#40372C"></path><path d="M27.3671 25.1701C30.7424 25.0075 33.5257 26.8293 33.6118 28.6225C33.6321 29.0444 33.3811 29.3208 32.9064 29.3437C31.2715 29.4224 32.0191 27.3776 28.7493 27.5352C24.794 27.7258 21.0041 33.5646 21.2295 38.2585C22.6535 38.1898 27.4829 31.9838 29.1169 29.6848C29.265 29.4662 29.4734 29.4033 29.7371 29.3906C30.5809 29.35 31.9525 30.394 31.6817 31.3586C31.1349 33.1822 30.5831 34.9004 30.6768 36.8518C30.6895 37.1155 30.8 37.2159 31.011 37.2057C34.0196 37.1136 39.9616 30.9596 42.8183 27.7031C42.9187 27.5926 43.0216 27.5348 43.1271 27.5297C43.6545 27.5043 44.3654 27.9986 44.3907 28.526C44.3958 28.6315 44.3481 28.7395 44.3004 28.8476C42.1796 32.0157 35.9769 39.3452 31.916 39.5409C29.7538 39.6451 28.4673 38.174 28.0521 36.1324C26.7067 37.836 24.523 40.7957 22.2553 40.905C19.882 41.0193 18.5125 38.918 18.4086 36.7556C18.1883 32.1673 22.4097 25.409 27.3671 25.1701Z" fill="#40372C"></path><path d="M50.8894 5.51983C50.8897 3.17978 50.2899 1.85975 48.61 1.49974L48.6101 1.19974L62.8898 1.19974C85.8094 1.19974 85.923 43.2007 62.8834 43.2007L48.6036 43.2007L48.6037 42.9007C50.2837 42.5407 50.8839 41.2206 50.8842 38.8806L50.8894 5.51983ZM61.0835 42.6007C80.4032 42.6007 81.1294 1.79975 61.0897 1.79975L57.3698 1.79975C55.6298 1.79975 55.0896 3.17978 55.0893 5.51983L55.0842 38.8806C55.0838 41.2206 55.6236 42.6007 57.3636 42.6007L61.0835 42.6007Z" fill="#40372C"></path><path d="M88.1441 11.1C84.6642 11.1 84.6649 6.05985 88.1449 6.05985C91.5048 6.05985 91.5041 11.1 88.1441 11.1ZM86.0431 18.1801C86.0433 16.5601 85.6833 16.5601 85.0833 16.5601L85.0834 16.2601C86.6434 16.1401 89.1035 14.94 89.9438 13.2L90.2438 13.2L90.2398 38.8806C90.2395 41.2206 90.8392 42.5407 92.5192 42.9007L92.5191 43.2007L83.7593 43.2007L83.7593 42.9007C85.4393 42.5407 86.0395 41.2206 86.0399 38.8806L86.0431 18.1801Z" fill="#40372C"></path><path d="M120.966 17.5201L110.222 43.2007L99.3662 17.5201C98.2866 14.94 98.0468 13.86 96.1269 13.5L96.1269 13.2L104.227 13.2L104.227 13.5C102.787 13.86 102.907 14.88 103.986 17.5201L112.143 36.9605L120.366 17.2801C121.446 14.64 121.206 13.86 119.766 13.5L119.767 13.2L124.386 13.2L124.386 13.5C122.466 13.86 122.046 14.94 120.966 17.5201Z" fill="#40372C"></path><path d="M143.249 37.3806L143.249 35.1605C141.329 40.3206 136.348 43.9807 130.768 43.2007C122.129 42.0007 121.11 31.8604 130.531 28.2003C136.411 25.8603 142.891 25.3203 143.192 19.4401C143.373 15.4201 140.853 13.26 137.913 13.26C135.573 13.26 132.933 14.64 131.192 17.5201C130.652 18.3601 129.992 18.7201 129.452 18.7201C128.432 18.7201 127.712 17.7001 128.193 16.6801C129.333 14.34 133.173 12.6 137.133 12.6C142.173 12.6 147.452 15.4801 147.451 23.5202L147.449 38.8806C147.448 41.2206 148.048 42.5407 149.728 42.9007L149.728 43.2007L140.968 43.2007L140.968 42.9007C142.648 42.5407 143.249 40.1406 143.249 37.3806ZM143.25 31.7404L143.251 22.0202C141.151 26.5203 135.331 26.4603 131.191 29.4004C127.05 32.3404 126.569 40.5606 132.569 41.8807C138.448 43.2007 143.249 36.4805 143.25 31.7404Z" fill="#40372C"></path><path fill-rule="evenodd" clip-rule="evenodd" d="M142.044 14.3115C142.084 14.3512 142.123 14.3917 142.161 14.4329C143.264 15.6121 143.888 17.3234 143.792 19.4672L143.792 19.4709C143.745 20.3788 143.561 21.1792 143.257 21.8884L143.852 22.0204L143.851 31.7406C143.85 32.7947 143.632 33.9276 143.232 35.0494L143.85 35.1607L143.85 37.3807C143.849 38.7927 143.697 40.162 143.303 41.2459C143.12 41.7497 142.873 42.219 142.546 42.6009L147.925 42.6009C147.735 42.4031 147.57 42.1757 147.431 41.9182C147 41.1198 146.849 40.0853 146.849 38.8808L146.852 23.5204C146.852 19.6408 145.585 17.0865 143.785 15.4946C143.253 15.0232 142.667 14.6307 142.044 14.3115ZM133.507 42.6279C133.156 42.6006 132.8 42.5475 132.439 42.4667C129.112 41.7341 127.599 39.0633 127.478 36.2743C127.359 33.5192 128.58 30.5186 130.844 28.9114C131.065 28.7541 131.292 28.6049 131.522 28.4628C131.265 28.5582 131.008 28.6564 130.753 28.758L130.748 28.7598C126.222 30.5186 124.336 33.7656 124.477 36.5932C124.618 39.4092 126.777 42.0406 130.852 42.6066C131.756 42.733 132.645 42.7356 133.507 42.6279ZM142.652 24.0198C141.46 25.3645 139.862 26.1759 138.214 26.8508C137.637 27.0868 137.058 27.3059 136.482 27.5236C134.743 28.1807 133.037 28.8256 131.538 29.8898C129.662 31.2226 128.572 33.8021 128.677 36.2222C128.78 38.6081 130.027 40.7071 132.698 41.2948L132.701 41.2954C135.362 41.893 137.828 40.6866 139.673 38.6775C141.524 36.6608 142.65 33.9354 142.651 31.7406L142.652 24.0198ZM142.645 37.7724C142.619 38.9628 142.469 40.0273 142.175 40.8358C141.847 41.7371 141.392 42.1967 140.843 42.3142L140.369 42.9009L140.369 43.2009L140.969 43.8009L149.729 43.8009L150.329 43.2009L150.329 42.9009L149.855 42.3142C149.17 42.1674 148.756 41.847 148.487 41.3485C148.198 40.8119 148.049 40.0163 148.049 38.8808L148.052 23.5204C148.052 19.3599 146.681 16.454 144.581 14.5958C142.494 12.75 139.76 12.0002 137.134 12.0002C135.071 12.0002 133.035 12.4525 131.357 13.2167C129.693 13.9747 128.309 15.0735 127.654 16.4175L127.65 16.4248C126.977 17.8547 128.006 19.3203 129.453 19.3203C130.262 19.3203 131.087 18.7937 131.698 17.8448L131.706 17.8306C133.352 15.1073 135.809 13.8602 137.913 13.8602C139.235 13.8602 140.435 14.3439 141.285 15.2526C142.132 16.1581 142.677 17.5364 142.593 19.412C142.524 20.7614 142.105 21.7735 141.448 22.5827C140.783 23.4031 139.846 24.0478 138.692 24.6083C137.537 25.1696 136.202 25.6292 134.761 26.1013C134.553 26.1695 134.343 26.2379 134.131 26.307C132.888 26.7114 131.586 27.1354 130.311 27.6423C125.42 29.5438 123.106 33.1963 123.278 36.6533C123.452 40.1223 126.121 43.1609 130.686 43.7951C135.67 44.4919 140.161 41.8418 142.645 37.7724ZM134.703 13.4253C133.68 13.6151 132.712 13.9183 131.855 14.3088C130.326 15.0049 129.221 15.9446 128.734 16.9394C128.45 17.5482 128.861 18.1203 129.453 18.1203C129.723 18.1203 130.215 17.9281 130.684 17.2026C131.765 15.4159 133.189 14.1575 134.703 13.4253ZM122.349 13.8002L121.358 13.8002C121.477 13.9838 121.559 14.1929 121.602 14.4265C121.617 14.5098 121.627 14.5952 121.633 14.6825C121.714 14.5532 121.796 14.4313 121.883 14.3168C122.028 14.1239 122.182 13.9523 122.349 13.8002ZM112.142 35.4072L119.811 17.0531C119.811 17.0524 119.812 17.0517 119.812 17.051C120.076 16.405 120.251 15.8943 120.347 15.4879C120.445 15.0763 120.453 14.8126 120.422 14.6439C120.395 14.4986 120.339 14.4145 120.247 14.3416C120.136 14.2533 119.946 14.1634 119.621 14.0823L119.167 13.5002L119.167 13.2002L119.767 12.6002L124.387 12.6002L124.987 13.2002L124.987 13.5002L124.497 14.0899C123.665 14.2461 123.22 14.5361 122.841 15.0386C122.424 15.5924 122.085 16.403 121.545 17.6906L110.776 43.4324L109.67 43.4346L98.8141 17.754L98.8133 17.752C98.6938 17.4664 98.5864 17.2046 98.4876 16.9637C98.1212 16.07 97.8734 15.4658 97.5665 15.0159C97.387 14.7527 97.2007 14.5673 96.975 14.4271C96.7457 14.2846 96.4461 14.1705 96.0168 14.0899L95.5274 13.5002L95.5275 13.2002L96.1276 12.6002L104.227 12.6002L104.827 13.2002L104.827 13.5002L104.373 14.0823C104.07 14.158 103.933 14.249 103.87 14.3176C103.819 14.3724 103.767 14.4625 103.762 14.6695C103.757 14.8922 103.808 15.2084 103.941 15.6579C104.073 16.1011 104.274 16.6374 104.541 17.2906C104.541 17.2914 104.542 17.2923 104.542 17.2931L112.142 35.4072ZM112.086 37.1925L110.22 41.6531L99.9202 17.2886C99.9204 17.2889 99.9201 17.2883 99.9202 17.2886C99.8178 17.0438 99.721 16.807 99.6284 16.5805C99.2539 15.6647 98.9428 14.9038 98.5579 14.3395C98.4234 14.1425 98.2763 13.9623 98.1097 13.8002L102.773 13.8002C102.632 14.0555 102.569 14.3418 102.562 14.641C102.553 15.0482 102.644 15.5046 102.791 16.0002C102.94 16.5014 103.159 17.0818 103.431 17.7475L103.433 17.7525L111.59 37.193L112.086 37.1925ZM89.5868 7.24619C89.2863 6.90804 88.8225 6.66006 88.1453 6.66005C87.4309 6.66006 86.9427 6.9135 86.6292 7.25396C86.307 7.60386 86.1351 8.08375 86.1351 8.5801C86.135 9.07645 86.3067 9.55634 86.6288 9.90624C86.9421 10.2467 87.4304 10.5001 88.1447 10.5001C88.8219 10.5001 89.2857 10.2522 89.5864 9.91401C89.8968 9.56482 90.0649 9.08227 90.065 8.5801C90.0651 8.07793 89.8971 7.59538 89.5868 7.24619ZM90.4831 10.7113C89.9436 11.3181 89.1474 11.7002 88.1446 11.7002C87.119 11.7002 86.3023 11.3236 85.7458 10.719C85.1981 10.1239 84.935 9.34378 84.9351 8.5801C84.9352 7.81642 85.1985 7.03628 85.7465 6.44117C86.3031 5.8366 87.1199 5.46003 88.1455 5.46003C89.1483 5.46003 89.9444 5.84206 90.4838 6.44893C91.0133 7.04476 91.2651 7.82224 91.265 8.5801C91.2649 9.33796 91.0128 10.1154 90.4831 10.7113ZM89.6441 14.6489C89.1879 15.127 88.643 15.532 88.0857 15.8563C87.5403 16.1737 86.9586 16.4281 86.3962 16.6027C86.4795 16.7648 86.5323 16.9451 86.5677 17.1321C86.6207 17.4124 86.6436 17.7582 86.6436 18.1803L86.6404 38.8808C86.6402 40.0853 86.4887 41.1198 86.058 41.9182C85.9191 42.1757 85.7542 42.4031 85.5634 42.6009L90.7162 42.6009C90.5255 42.4031 90.3606 42.1757 90.2218 41.9182C89.7913 41.1198 89.6402 40.0853 89.6404 38.8808L89.6441 14.6489ZM89.9444 12.6002L90.2444 12.6002L90.8443 13.2002L90.8403 38.8808C90.8402 40.0163 90.9887 40.8119 91.278 41.3485C91.5468 41.847 91.9608 42.1675 92.6455 42.3142L93.1197 42.9009L93.1196 43.2009L92.5196 43.8009L83.7597 43.8009L83.1598 43.2009L83.1599 42.9009L83.6342 42.3142C84.3189 42.1675 84.7331 41.847 85.002 41.3485C85.2915 40.8119 85.4403 40.0163 85.4404 38.8808L85.4436 18.1803C85.4437 17.7924 85.4217 17.5307 85.3886 17.3553C85.3699 17.2566 85.3502 17.1996 85.3373 17.1695C85.3009 17.1658 85.2255 17.1603 85.0838 17.1603L84.4839 16.5603L84.4839 16.2603L85.038 15.662C85.7091 15.6104 86.6274 15.3167 87.4823 14.8192C88.3397 14.3202 89.055 13.6621 89.404 12.9393L89.9444 12.6002ZM65.9939 2.08418C68.8384 3.1843 71.0946 5.24047 72.7657 7.85158C75.2917 11.7983 76.4934 17.0207 76.4469 22.2057C76.4003 27.3912 75.1048 32.6094 72.5575 36.5513C70.8465 39.1991 68.5609 41.2807 65.715 42.3683C69.8659 41.6633 73.0675 39.4054 75.343 36.2848C78.1243 32.4704 79.5284 27.3518 79.5218 22.2013C79.5153 17.0508 78.0982 11.9314 75.3138 8.11636C73.0887 5.0674 69.9871 2.84286 65.9939 2.08418ZM55.5964 42.6009C55.374 42.4066 55.1925 42.1725 55.0467 41.9087C54.6169 41.1313 54.4845 40.0713 54.4847 38.8808L54.4898 5.52003C54.49 4.32951 54.6228 3.26951 55.0527 2.49213C55.1986 2.22836 55.3802 1.99422 55.6026 1.79995L50.414 1.79995C50.6047 1.99769 50.7696 2.22516 50.9084 2.48265C51.3389 3.28104 51.4901 4.3155 51.4899 5.52003L51.4848 38.8808C51.4846 40.0853 51.3331 41.1198 50.9024 41.9182C50.7635 42.1757 50.5986 42.4031 50.4077 42.6009L55.5964 42.6009ZM76.3126 36.9917C73.3386 41.0703 68.852 43.8009 62.8838 43.8009L48.6041 43.8009L48.0042 43.2009L48.0042 42.9009L48.4786 42.3142C49.1633 42.1675 49.5774 41.847 49.8463 41.3485C50.1358 40.8119 50.2846 40.0163 50.2848 38.8808L50.2899 5.52003C50.2901 4.38451 50.1415 3.58893 49.8522 3.05229C49.5834 2.55381 49.1694 2.23336 48.4847 2.08664L48.0106 1.49994L48.0106 1.19993L48.6107 0.59992L62.8904 0.599922C68.8296 0.599921 73.3074 3.33136 76.2832 7.40881C79.2463 11.4689 80.715 16.8498 80.7218 22.1996C80.7286 27.5492 79.2736 32.9309 76.3126 36.9917ZM71.755 8.4986C69.397 4.81438 65.8608 2.39996 61.0902 2.39996L57.3703 2.39996C57.015 2.39996 56.7611 2.46999 56.5738 2.57523C56.3891 2.67902 56.2331 2.83718 56.1027 3.07281C55.8275 3.57046 55.69 4.3705 55.6898 5.52003L55.6847 38.8808C55.6845 40.0303 55.8218 40.8304 56.0969 41.328C56.2271 41.5636 56.3831 41.7218 56.5678 41.8256C56.7551 41.9308 57.0089 42.0009 57.3642 42.0009L61.0841 42.0009C65.6678 42.0009 69.1631 39.5933 71.5497 35.9001C73.946 32.1919 75.2019 27.2099 75.2469 22.1951C75.292 17.1799 74.1253 12.202 71.755 8.4986Z" fill="#40372C"></path><path d="M17.798 69.6012L17.7993 61.201L20.5713 61.201C21.1472 61.201 21.6432 61.289 22.0592 61.465C22.4832 61.641 22.8111 61.905 23.0431 62.257C23.275 62.601 23.3909 63.033 23.3908 63.553C23.3908 63.913 23.3027 64.237 23.1267 64.5251C22.9587 64.8131 22.7186 65.0531 22.4066 65.2451C22.8146 65.4451 23.1265 65.7131 23.3425 66.0491C23.5584 66.3851 23.6663 66.7851 23.6663 67.2491C23.6662 67.7451 23.5541 68.1691 23.3301 68.5211C23.106 68.8732 22.79 69.1412 22.382 69.3252C21.974 69.5092 21.49 69.6012 20.93 69.6012L17.798 69.6012ZM19.1662 68.3531L20.8222 68.3531C21.2621 68.3531 21.6102 68.2451 21.8662 68.0291C22.1222 67.8131 22.2503 67.5211 22.2503 67.1531C22.2504 66.7531 22.1064 66.4411 21.8185 66.2171C21.5385 65.9931 21.1425 65.8811 20.6305 65.8811L19.1666 65.8811L19.1662 68.3531ZM19.1667 64.7291L20.6907 64.7291C21.0907 64.7291 21.4027 64.6251 21.6267 64.4171C21.8588 64.201 21.9748 63.905 21.9749 63.529C21.9749 63.145 21.843 62.853 21.579 62.653C21.323 62.445 20.9631 62.341 20.4991 62.341L19.1671 62.341L19.1667 64.7291Z" fill="#40372C"></path><path d="M27.5455 69.6012L27.5468 61.201L32.7187 61.201L32.7185 62.473L28.9386 62.473L28.9382 64.7051L32.2742 64.7051L32.274 65.9531L28.938 65.9531L28.9377 68.3291L32.7536 68.3291L32.7534 69.6012L27.5455 69.6012Z" fill="#40372C"></path><path d="M42.8434 69.6012L39.5687 61.201L40.9607 61.201L44.3193 69.6012L42.8434 69.6012ZM36.1355 69.6012L39.4847 61.201L40.8887 61.201L37.6115 69.6012L36.1355 69.6012ZM37.7078 67.5371L37.708 66.3011L42.7359 66.3011L42.7357 67.5371L37.7078 67.5371Z" fill="#40372C"></path><path d="M51.0178 69.7692C50.3538 69.7692 49.7699 69.6372 49.2659 69.3732C48.77 69.1012 48.382 68.7212 48.1021 68.2331C47.8302 67.7451 47.6943 67.1771 47.6944 66.5291L47.6952 61.201L49.0872 61.201L49.0864 66.5291C49.0863 66.9211 49.1662 67.2651 49.3262 67.5611C49.4942 67.8491 49.7261 68.0771 50.0221 68.2451C50.3181 68.4051 50.658 68.4851 51.042 68.4851C51.434 68.4851 51.778 68.4051 52.074 68.2451C52.3781 68.0771 52.6101 67.8491 52.7701 67.5611C52.9302 67.2651 53.0102 66.9211 53.0103 66.5291L53.0111 61.201L54.4031 61.201L54.4023 66.5291C54.4022 67.1771 54.2621 67.7451 53.982 68.2331C53.7099 68.7212 53.3179 69.1012 52.8059 69.3732C52.3018 69.6372 51.7058 69.7692 51.0178 69.7692Z" fill="#40372C"></path><path d="M60.2271 69.6012L60.2282 62.473L57.6483 62.473L57.6485 61.201L64.2004 61.201L64.2002 62.473L61.6202 62.473L61.6191 69.6012L60.2271 69.6012Z" fill="#40372C"></path><path d="M71.1987 66.1211L69.9148 65.7131L72.6274 61.201L74.2234 61.201L71.1987 66.1211ZM69.8422 69.6012L69.8428 65.5691L71.2348 65.5691L71.2341 69.6012L69.8422 69.6012ZM69.8787 66.1211L66.8555 61.201L68.4515 61.201L71.1627 65.7131L69.8787 66.1211Z" fill="#40372C"></path><path d="M85.767 69.7452C85.327 69.7452 84.923 69.6932 84.555 69.5892C84.1951 69.4852 83.8751 69.3412 83.5951 69.1572C83.3232 68.9732 83.0952 68.7692 82.9112 68.5451C82.7353 68.3131 82.6113 68.0731 82.5393 67.8251L83.9074 67.4051C84.0113 67.7011 84.2153 67.9611 84.5193 68.1851C84.8232 68.4091 85.1992 68.5251 85.6472 68.5331C86.1672 68.5331 86.5792 68.4251 86.8832 68.2091C87.1872 67.9931 87.3393 67.7091 87.3393 67.3571C87.3394 67.0371 87.2114 66.7771 86.9555 66.5771C86.6995 66.3691 86.3555 66.2091 85.9236 66.0971L84.8916 65.8331C84.4996 65.7291 84.1437 65.5771 83.8237 65.3771C83.5117 65.1771 83.2638 64.9251 83.0798 64.6211C82.9039 64.3171 82.8159 63.957 82.816 63.541C82.8161 62.757 83.0722 62.149 83.5843 61.717C84.0963 61.277 84.8283 61.057 85.7803 61.057C86.3163 61.057 86.7843 61.141 87.1843 61.309C87.5922 61.469 87.9282 61.693 88.1921 61.981C88.4561 62.261 88.652 62.581 88.78 62.941L87.4359 63.373C87.316 63.053 87.108 62.789 86.8121 62.581C86.5161 62.373 86.1481 62.269 85.7081 62.269C85.2521 62.269 84.8921 62.377 84.6281 62.593C84.3721 62.809 84.244 63.109 84.244 63.493C84.2439 63.805 84.3439 64.049 84.5439 64.2251C84.7518 64.3931 85.0318 64.5211 85.3838 64.6091L86.4157 64.8611C87.1677 65.0451 87.7516 65.3611 88.1676 65.8091C88.5835 66.2571 88.7914 66.7531 88.7913 67.2971C88.7912 67.7771 88.6752 68.2011 88.4431 68.5692C88.2111 68.9372 87.867 69.2252 87.411 69.4332C86.963 69.6412 86.415 69.7452 85.767 69.7452Z" fill="#40372C"></path><path d="M98.551 69.6012L95.2764 61.201L96.6683 61.201L100.027 69.6012L98.551 69.6012ZM91.8431 69.6012L95.1924 61.201L96.5963 61.201L93.3191 69.6012L91.8431 69.6012ZM93.4154 67.5371L93.4156 66.3011L98.4435 66.3011L98.4433 67.5371L93.4154 67.5371Z" fill="#40372C"></path><path d="M103.522 69.6012L103.523 61.201L104.915 61.201L104.914 68.3291L108.718 68.3291L108.717 69.6012L103.522 69.6012Z" fill="#40372C"></path><path d="M115.829 69.7452C114.997 69.7452 114.261 69.5612 113.621 69.1932C112.981 68.8252 112.477 68.3131 112.109 67.6571C111.75 67.0011 111.57 66.2491 111.57 65.4011C111.57 64.5531 111.75 63.805 112.11 63.157C112.478 62.501 112.978 61.989 113.61 61.621C114.242 61.245 114.97 61.057 115.794 61.057C116.626 61.057 117.358 61.245 117.99 61.621C118.63 61.989 119.126 62.501 119.478 63.157C119.838 63.805 120.018 64.5531 120.018 65.4011C120.018 66.2491 119.837 67.0011 119.477 67.6571C119.125 68.3131 118.633 68.8252 118.001 69.1932C117.377 69.5612 116.653 69.7452 115.829 69.7452ZM115.829 68.4732C116.373 68.4732 116.853 68.3411 117.269 68.0771C117.685 67.8131 118.009 67.4531 118.241 66.9971C118.482 66.5331 118.602 66.0011 118.602 65.4011C118.602 64.8091 118.482 64.2811 118.242 63.817C118.002 63.353 117.67 62.993 117.246 62.737C116.83 62.473 116.346 62.341 115.794 62.341C115.25 62.341 114.766 62.473 114.342 62.737C113.926 62.993 113.594 63.353 113.346 63.817C113.106 64.2731 112.986 64.8011 112.986 65.4011C112.986 66.0011 113.106 66.5331 113.346 66.9971C113.594 67.4531 113.929 67.8131 114.353 68.0771C114.785 68.3411 115.277 68.4732 115.829 68.4732Z" fill="#40372C"></path><path d="M123.895 69.6012L123.897 61.201L125.337 61.201L129.8 67.2731L129.801 61.201L131.193 61.201L131.191 69.6012L129.799 69.6012L125.288 63.457L125.287 69.6012L123.895 69.6012Z" fill="#40372C"></path></svg>